<?xml version="1.0" encoding="UTF-8" standalone="no"?>
<!-- Created with Inkscape (http://www.inkscape.org/) -->

<svg
 xmlns:dc="http://purl.org/dc/elements/1.1/"
 xmlns:cc="http://creativecommons.org/ns#"
 xmlns:rdf="http://www.w3.org/1999/02/22-rdf-syntax-ns#"
 xmlns:svg="http://www.w3.org/2000/svg"
 xmlns="http://www.w3.org/2000/svg"
 xmlns:sodipodi="http://sodipodi.sourceforge.net/DTD/sodipodi-0.dtd"
 xmlns:inkscape="http://www.inkscape.org/namespaces/inkscape"
 id="svg3055"
 version="1.1"
 inkscape:version="0.48.5 r10040"
 width="364"
 height="438"
 sodipodi:docname="shield-outline5.svg">
<metadata
 id="metadata3061">
<rdf:RDF>
<cc:Work
 rdf:about="">
<dc:format>image/svg+xml</dc:format>
<dc:type
 rdf:resource="http://purl.org/dc/dcmitype/StillImage" />
<dc:title></dc:title>
</cc:Work>
</rdf:RDF>
</metadata>
<defs
 id="defs3059" />
<sodipodi:namedview
 pagecolor="#ffffff"
 bordercolor="#666666"
 borderopacity="1"
 objecttolerance="10"
 gridtolerance="10"
 guidetolerance="10"
 inkscape:pageopacity="0"
 inkscape:pageshadow="2"
 inkscape:window-width="2558"
 inkscape:window-height="1381"
 id="namedview3057"
 showgrid="false"
 inkscape:zoom="1.5239927"
 inkscape:cx="36.001925"
 inkscape:cy="219"
 inkscape:window-x="0"
 inkscape:window-y="0"
 inkscape:window-maximized="0"
 inkscape:current-layer="svg3055" />
<path
 style="fill:#000000;fill-opacity:1;stroke:none"
 d="M 170.56527,417.5811 C 160.54456,413.62609 142.02312,404.43862 132.4123,398.65548 113.75452,387.4285 90.840331,367.78712 76.600928,350.8156 50.474344,319.67608 30.265569,274.12517 25.670586,236.01774 24.324082,224.85085 24.223488,44.750363 25.561151,40.086209 26.630721,36.356837 29.663944,32.801533 33.461695,30.825823 36.429464,29.281897 58.09024,25.996764 88.536356,22.473051 125.48935,18.196257 137.3217,17.590683 183.4419,17.615817 231.20007,17.641845 245.07179,18.46902 287.8857,23.843836 330.69389,29.217927 332.95391,29.781215 337.2429,36.145652 L 339.39223,39.335069 339.39223,137.7397 C 339.39223,203.9004 339.05561,237.99879 338.36487,241.80398 329.74716,289.27779 307.57527,332.35395 275.05457,364.80493 252.85754,386.95435 225.81767,404.73232 196.31855,416.57168 184.29749,421.39628 180.59899,421.54125 170.56527,417.5811 z"
 id="path3065"
 inkscape:connector-curvature="0" />
</svg>
