<?xml version="1.0" encoding="UTF-8" standalone="no"?>
<!-- Created with Inkscape (http://www.inkscape.org/) -->

<svg
 xmlns:dc="http://purl.org/dc/elements/1.1/"
 xmlns:cc="http://creativecommons.org/ns#"
 xmlns:rdf="http://www.w3.org/1999/02/22-rdf-syntax-ns#"
 xmlns:svg="http://www.w3.org/2000/svg"
 xmlns="http://www.w3.org/2000/svg"
 xmlns:sodipodi="http://sodipodi.sourceforge.net/DTD/sodipodi-0.dtd"
 xmlns:inkscape="http://www.inkscape.org/namespaces/inkscape"
 id="svg3055"
 version="1.1"
 inkscape:version="0.48.5 r10040"
 width="364"
 height="438"
 sodipodi:docname="shield-filled-plus-outline.svg">
<metadata
 id="metadata3061">
<rdf:RDF>
<cc:Work
 rdf:about="">
<dc:format>image/svg+xml</dc:format>
<dc:type
 rdf:resource="http://purl.org/dc/dcmitype/StillImage" />
<dc:title />
</cc:Work>
</rdf:RDF>
</metadata>
<defs
 id="defs3059" />
<sodipodi:namedview
 pagecolor="#ffffff"
 bordercolor="#666666"
 borderopacity="1"
 objecttolerance="10"
 gridtolerance="10"
 guidetolerance="10"
 inkscape:pageopacity="0"
 inkscape:pageshadow="2"
 inkscape:window-width="1408"
 inkscape:window-height="833"
 id="namedview3057"
 showgrid="false"
 inkscape:zoom="1.0776256"
 inkscape:cx="363.88261"
 inkscape:cy="219"
 inkscape:window-x="1696"
 inkscape:window-y="0"
 inkscape:window-maximized="0"
 inkscape:current-layer="svg3055" />
<path
 style="fill:#000000;fill-opacity:1;stroke:none"
 d="M 184.98091,8.6335223 C 135.88542,8.6067669 123.28898,9.2370542 83.952079,13.789752 51.541825,17.540787 28.496616,21.028246 25.337391,22.671773 21.29464,24.77494 18.059663,28.581814 16.921093,32.551775 15.497135,37.516822 15.587522,229.2423 17.020891,241.12958 21.912306,281.6954 43.432407,330.1672 71.244468,363.31559 86.402482,381.38198 110.79611,402.29459 130.65754,414.24583 140.88837,420.40207 160.60816,430.19488 171.27532,434.40504 181.95634,438.62066 185.88994,438.4431 198.68651,433.30726 230.08867,420.70411 258.88781,401.79709 282.51682,378.21876 317.13549,343.6743 340.74007,297.82023 349.91373,247.28379 350.64903,243.23312 351.01151,206.93688 351.01151,136.50802 L 351.01151,31.753391 348.71616,28.360259 C 344.15047,21.585239 341.72571,20.974239 296.15588,15.253456 250.57997,9.5319002 235.82005,8.6612301 184.98091,8.6335223 z M 184.88112,25.499383 C 231.71746,25.52492 245.31962,26.34925 287.30712,31.620327 329.28901,36.890684 331.50296,37.421032 335.70915,43.662618 L 337.8049,46.789622 337.8049,143.29429 C 337.8049,208.17793 337.48434,241.62263 336.80692,245.35437 328.35555,291.91185 306.5923,334.15226 274.69931,365.97687 252.93071,387.69875 226.41865,405.16322 197.48892,416.77406 185.69989,421.50553 182.08009,421.62248 172.24004,417.73876 162.41275,413.86009 144.2411,404.84787 134.81579,399.17634 116.51814,388.16607 94.057772,368.91522 80.093223,352.27128 54.470937,321.73282 34.633985,277.07103 30.127695,239.69915 28.807181,228.7478 28.716051,52.128872 30.027897,47.55474 31.07682,43.89735 34.054429,40.410695 37.778873,38.473122 40.689361,36.958992 61.94441,33.712119 91.802855,30.256421 128.04256,26.06217 139.65116,25.474739 184.88112,25.499383 z"
 id="path3065"
 inkscape:connector-curvature="0" />
<path
 inkscape:connector-curvature="0"
 id="path2982"
 d="M 173.647,396.71213 C 165.05194,393.25254 149.16556,385.21592 140.92207,380.15721 124.91873,370.33656 105.26455,353.15554 93.050993,338.30992 70.641443,311.07105 53.307774,271.226 49.366523,237.89205 48.211583,228.12395 48.125302,70.583488 49.272654,66.503583 50.190053,63.241364 52.791744,60.13141 56.049194,58.403186 58.594724,57.052657 77.173824,54.179031 103.28836,51.096712 134.98404,47.355643 145.133,46.825927 184.69167,46.847911 225.65527,46.870679 237.55346,47.594239 274.27624,52.295786 310.99408,56.9967 312.93257,57.489429 316.61136,63.056634 L 318.45491,65.846533 318.45491,151.92466 C 318.45491,209.79783 318.16617,239.62493 317.57371,242.95349 310.18205,284.48055 291.16455,322.16085 263.27058,350.54691 244.23153,369.92181 221.03863,385.47284 195.73635,395.82915 185.42554,400.04941 182.25323,400.17623 173.647,396.71213 z"
 style="fill:#000000;fill-opacity:1;stroke:none" />
</svg>
