<?xml version="1.0" encoding="UTF-8" standalone="no"?>
<!-- Created with Inkscape (http://www.inkscape.org/) -->

<svg
 xmlns:dc="http://purl.org/dc/elements/1.1/"
 xmlns:cc="http://creativecommons.org/ns#"
 xmlns:rdf="http://www.w3.org/1999/02/22-rdf-syntax-ns#"
 xmlns:svg="http://www.w3.org/2000/svg"
 xmlns="http://www.w3.org/2000/svg"
 xmlns:sodipodi="http://sodipodi.sourceforge.net/DTD/sodipodi-0.dtd"
 xmlns:inkscape="http://www.inkscape.org/namespaces/inkscape"
 id="svg3055"
 version="1.1"
 inkscape:version="0.48.5 r10040"
 width="364"
 height="438"
 sodipodi:docname="shield-outline3.svg">
<metadata
 id="metadata3061">
<rdf:RDF>
<cc:Work
 rdf:about="">
<dc:format>image/svg+xml</dc:format>
<dc:type
 rdf:resource="http://purl.org/dc/dcmitype/StillImage" />
<dc:title></dc:title>
</cc:Work>
</rdf:RDF>
</metadata>
<defs
 id="defs3059" />
<sodipodi:namedview
 pagecolor="#ffffff"
 bordercolor="#666666"
 borderopacity="1"
 objecttolerance="10"
 gridtolerance="10"
 guidetolerance="10"
 inkscape:pageopacity="0"
 inkscape:pageshadow="2"
 inkscape:window-width="2558"
 inkscape:window-height="1381"
 id="namedview3057"
 showgrid="false"
 inkscape:zoom="1.5239927"
 inkscape:cx="36.001925"
 inkscape:cy="219"
 inkscape:window-x="0"
 inkscape:window-y="0"
 inkscape:window-maximized="0"
 inkscape:current-layer="svg3055" />
<path
 style="fill:none;stroke:#000000;stroke-width:24.49749184;stroke-miterlimit:4;stroke-opacity:1;stroke-dasharray:none"
 d="M 171.26982,405.3455 C 161.86654,401.63418 144.4863,393.01278 135.46764,387.58598 117.95947,377.05075 96.457146,358.61958 83.095108,342.69376 58.578318,313.47291 39.61471,270.72863 35.302847,234.96919 34.039308,224.49034 33.944912,55.48678 35.200154,51.110009 36.203822,47.610423 39.050154,44.274179 42.613906,42.420203 45.398815,40.971405 65.724959,37.888686 94.295133,34.582088 128.97126,30.568809 140.07456,30.000547 183.35306,30.024133 228.1686,30.048557 241.18561,30.824766 281.36154,35.868411 321.53209,40.911378 323.65285,41.439958 327.67758,47.41225 L 329.69449,50.40515 329.69449,142.74656 C 329.69449,204.83077 329.3786,236.82818 328.73042,240.3989 320.6437,284.94761 299.83793,325.36963 269.32099,355.82113 248.49164,376.60582 223.11784,393.2884 195.4363,404.39827 184.15593,408.9256 180.68531,409.06164 171.26982,405.3455 z"
 id="path3065"
 inkscape:connector-curvature="0" />
</svg>
