<?xml version="1.0" encoding="UTF-8" standalone="no"?>
<!-- Created with Inkscape (http://www.inkscape.org/) -->

<svg
 xmlns:dc="http://purl.org/dc/elements/1.1/"
 xmlns:cc="http://creativecommons.org/ns#"
 xmlns:rdf="http://www.w3.org/1999/02/22-rdf-syntax-ns#"
 xmlns:svg="http://www.w3.org/2000/svg"
 xmlns="http://www.w3.org/2000/svg"
 xmlns:sodipodi="http://sodipodi.sourceforge.net/DTD/sodipodi-0.dtd"
 xmlns:inkscape="http://www.inkscape.org/namespaces/inkscape"
 version="1.1"
 width="604"
 height="642"
 id="svg3161"
 inkscape:version="0.48.5 r10040"
 sodipodi:docname="hexagon-filled-plus-outline.svg">
<sodipodi:namedview
 pagecolor="#ffffff"
 bordercolor="#666666"
 borderopacity="1"
 objecttolerance="10"
 gridtolerance="10"
 guidetolerance="10"
 inkscape:pageopacity="0"
 inkscape:pageshadow="2"
 inkscape:window-width="1537"
 inkscape:window-height="779"
 id="namedview6"
 showgrid="false"
 inkscape:zoom="0.73520249"
 inkscape:cx="128.57839"
 inkscape:cy="321"
 inkscape:window-x="1825"
 inkscape:window-y="0"
 inkscape:window-maximized="0"
 inkscape:current-layer="svg3161" />
<metadata
 id="metadata3167">
<rdf:RDF>
<cc:Work
 rdf:about="">
<dc:format>image/svg+xml</dc:format>
<dc:type
 rdf:resource="http://purl.org/dc/dcmitype/StillImage" />
<dc:title />
</cc:Work>
</rdf:RDF>
</metadata>
<defs
 id="defs3165" />
<path
 style="fill:#000000"
 d="M 302.21875 5.53125 L 168.0625 82.1875 L 33.875 158.84375 L 34.15625 316.8125 L 34.40625 474.75 L 167.5625 555.78125 C 252.58799 607.53028 301.46811 636.69105 302.78125 636.46875 C 303.91229 636.27727 364.51712 600.91804 437.46875 557.875 L 570.125 479.625 L 570.125 321.5625 L 570.125 163.5 L 436.15625 84.5 L 302.21875 5.53125 z M 302.1875 38.59375 L 422.09375 109.3125 L 542 180 L 542 321.5 L 542 462.96875 L 423.28125 533.03125 C 357.97812 571.56152 303.69996 603.23485 302.6875 603.40625 C 301.51204 603.60524 257.76737 577.47974 181.65625 531.15625 L 62.46875 458.625 L 62.21875 317.25 L 62 175.84375 L 182.09375 107.21875 L 302.1875 38.59375 z "
 id="path5937" />
<path
 inkscape:connector-curvature="0"
 d="M 194.19473,509.2773 87.417495,444.28955 87.208748,317.63324 87.000001,190.97694 194.58766,129.49566 302.17535,68.014365 409.58766,131.35296 517,194.69158 517,321.44153 517,448.19146 410.63504,510.94908 C 352.13431,545.46578 303.528,573.83234 302.62101,573.98589 301.56799,574.16415 262.3776,550.77543 194.19473,509.2773 z"
 id="path2986"
 style="fill:#000000" />
</svg>
