<?xml version="1.0" encoding="UTF-8" standalone="no"?>
<!-- Created with Inkscape (http://www.inkscape.org/) -->

<svg
 xmlns:dc="http://purl.org/dc/elements/1.1/"
 xmlns:cc="http://creativecommons.org/ns#"
 xmlns:rdf="http://www.w3.org/1999/02/22-rdf-syntax-ns#"
 xmlns:svg="http://www.w3.org/2000/svg"
 xmlns="http://www.w3.org/2000/svg"
 xmlns:sodipodi="http://sodipodi.sourceforge.net/DTD/sodipodi-0.dtd"
 xmlns:inkscape="http://www.inkscape.org/namespaces/inkscape"
 version="1.1"
 width="296"
 height="306"
 id="svg3151"
 inkscape:version="0.48.5 r10040"
 sodipodi:docname="002_mask_outline1.svg">
<sodipodi:namedview
 pagecolor="#ffffff"
 bordercolor="#666666"
 borderopacity="1"
 objecttolerance="10"
 gridtolerance="10"
 guidetolerance="10"
 inkscape:pageopacity="0"
 inkscape:pageshadow="2"
 inkscape:window-width="1553"
 inkscape:window-height="911"
 id="namedview7"
 showgrid="false"
 inkscape:zoom="1.5424837"
 inkscape:cx="-17.317797"
 inkscape:cy="153"
 inkscape:window-x="0"
 inkscape:window-y="0"
 inkscape:window-maximized="0"
 inkscape:current-layer="svg3151" />
<metadata
 id="metadata3157">
<rdf:RDF>
<cc:Work
 rdf:about="">
<dc:format>image/svg+xml</dc:format>
<dc:type
 rdf:resource="http://purl.org/dc/dcmitype/StillImage" />
<dc:title></dc:title>
</cc:Work>
</rdf:RDF>
</metadata>
<defs
 id="defs3155" />
<path
 d="M 159.94929,27.978194 245.0624,208.23279 C 250.5698,195.88423 254.61845,182.68252 257.08956,168.85988 257.55615,166.4591 257.7661,142.13536 257.76599,94.230675 L 257.76599,24.236033 256.92869,22.993508 C 255.05981,19.250426 254.90788,19.755711 224.14568,15.90897 193.26923,12.028227 183.48217,11.445477 149.01145,11.430355 115.71176,11.409382 107.38408,11.834089 80.750661,14.920892 58.769831,17.463532 43.809552,19.619323 42.316384,20.523673 40.196015,21.453064 39.051994,22.739838 38.699766,24.654457 37.812456,27.450908 37.951836,157.07874 38.912059,164.91671 40.607694,179.39386 45.464927,195.27725 52.474922,210.29684 L 145.32479,27.978194 z M 151.38864,126.06948 84.900787,256.59399 C 93.996129,265.41055 104.82547,273.99126 114.2221,279.62121 121.03391,283.7282 134.13758,290.22887 141.23357,293.02144 147.64554,295.74455 148.76599,295.64401 156.77135,292.29919 177.72557,283.93447 196.57588,271.55302 212.30532,255.82208 z M 138.13873,300.86276 C 130.71711,297.92548 116.98769,291.11571 109.87574,286.84433 96.075438,278.50607 78.948965,263.82706 68.391281,251.28771 49.153802,228.23094 34.037135,194.13248 30.542706,165.92588 29.552168,157.5857 29.545814,26.291277 30.596456,22.33046 31.793767,18.842125 35.044161,14.978107 38.425819,13.045161 41.232232,11.712729 57.653204,9.109151 79.781465,6.5468046 106.68405,3.4375678 115.49859,2.9849237 149.01601,3.0003737 183.73535,3.0229771 194.04511,3.6385574 225.1957,7.544661 256.45227,11.483679 259.57455,12.805039 263.91942,18.282476 L 266.19596,21.660673 266.19596,94.230655 C 266.19585,142.17696 265.91813,167.25353 265.38398,170.36556 258.94172,205.3427 242.29588,237.66159 218.35332,261.69577 201.94342,278.0095 181.65264,291.35153 159.91123,300.12259 150.50101,303.76746 146.26321,303.87696 138.13873,300.86276 z"
 id="path5"
 inkscape:connector-curvature="0" />
</svg>
