<?xml version="1.0" encoding="UTF-8" standalone="no"?>
<!-- Created with Inkscape (http://www.inkscape.org/) -->

<svg
 xmlns:dc="http://purl.org/dc/elements/1.1/"
 xmlns:cc="http://creativecommons.org/ns#"
 xmlns:rdf="http://www.w3.org/1999/02/22-rdf-syntax-ns#"
 xmlns:svg="http://www.w3.org/2000/svg"
 xmlns="http://www.w3.org/2000/svg"
 xmlns:sodipodi="http://sodipodi.sourceforge.net/DTD/sodipodi-0.dtd"
 xmlns:inkscape="http://www.inkscape.org/namespaces/inkscape"
 version="1.1"
 width="604"
 height="642"
 id="svg3161"
 inkscape:version="0.48.5 r10040"
 sodipodi:docname="hexagon-outline3-rounded.svg">
<sodipodi:namedview
 pagecolor="#ffffff"
 bordercolor="#666666"
 borderopacity="1"
 objecttolerance="10"
 gridtolerance="10"
 guidetolerance="10"
 inkscape:pageopacity="0"
 inkscape:pageshadow="2"
 inkscape:window-width="1973"
 inkscape:window-height="1454"
 id="namedview6"
 showgrid="false"
 inkscape:zoom="0.73520247"
 inkscape:cx="56.744809"
 inkscape:cy="321"
 inkscape:window-x="0"
 inkscape:window-y="0"
 inkscape:window-maximized="0"
 inkscape:current-layer="svg3161" />
<metadata
 id="metadata3167">
<rdf:RDF>
<cc:Work
 rdf:about="">
<dc:format>image/svg+xml</dc:format>
<dc:type
 rdf:resource="http://purl.org/dc/dcmitype/StillImage" />
<dc:title />
</cc:Work>
</rdf:RDF>
</metadata>
<defs
 id="defs3165" />
<path
 style="fill:#000000"
 d="M 302 5.71875 C 287.81567 5.71875 273.62181 9.8106807 259.4375 18 L 60.875 132.65625 C 32.506309 149.03488 18.3125 173.58646 18.3125 206.34375 L 18.3125 435.65625 C 18.3125 468.41353 32.506309 492.96511 60.875 509.34375 L 259.4375 624 C 287.80612 640.37864 316.19381 640.37864 344.5625 624 L 543.125 509.34375 C 571.49369 492.96511 585.6875 468.41353 585.6875 435.65625 L 585.6875 206.34375 C 585.6875 173.58646 571.49369 149.03488 543.125 132.65625 L 344.5625 18 C 330.37816 9.8106807 316.18433 5.71875 302 5.71875 z M 302 34.8125 C 314.87501 34.8125 327.74998 38.535366 340.625 45.96875 L 520.875 150.03125 C 546.62505 164.89801 559.5 187.20395 559.5 216.9375 L 559.5 425.0625 C 559.5 454.79603 546.62505 477.10198 520.875 491.96875 L 340.625 596.03125 C 314.87496 610.89802 289.12499 610.89802 263.375 596.03125 L 83.125 491.96875 C 57.374952 477.10198 44.5 454.79603 44.5 425.0625 L 44.5 216.9375 C 44.5 187.20395 57.374952 164.89801 83.125 150.03125 L 263.375 45.96875 C 276.24999 38.535366 289.12499 34.8125 302 34.8125 z "
 id="path5937-3" />
</svg>
