<?xml version="1.0" encoding="UTF-8" standalone="no"?>
<!-- Created with Inkscape (http://www.inkscape.org/) -->

<svg
 xmlns:dc="http://purl.org/dc/elements/1.1/"
 xmlns:cc="http://creativecommons.org/ns#"
 xmlns:rdf="http://www.w3.org/1999/02/22-rdf-syntax-ns#"
 xmlns:svg="http://www.w3.org/2000/svg"
 xmlns="http://www.w3.org/2000/svg"
 xmlns:sodipodi="http://sodipodi.sourceforge.net/DTD/sodipodi-0.dtd"
 xmlns:inkscape="http://www.inkscape.org/namespaces/inkscape"
 version="1.1"
 width="604"
 height="642"
 id="svg3161"
 inkscape:version="0.48.5 r10040"
 sodipodi:docname="002_simple_outline1_rounded_upright.svg">
<sodipodi:namedview
 pagecolor="#ffffff"
 bordercolor="#666666"
 borderopacity="1"
 objecttolerance="10"
 gridtolerance="10"
 guidetolerance="10"
 inkscape:pageopacity="0"
 inkscape:pageshadow="2"
 inkscape:window-width="1973"
 inkscape:window-height="1454"
 id="namedview6"
 showgrid="false"
 inkscape:zoom="0.73520247"
 inkscape:cx="-116.67681"
 inkscape:cy="321"
 inkscape:window-x="0"
 inkscape:window-y="0"
 inkscape:window-maximized="0"
 inkscape:current-layer="svg3161" />
<metadata
 id="metadata3167">
<rdf:RDF>
<cc:Work
 rdf:about="">
<dc:format>image/svg+xml</dc:format>
<dc:type
 rdf:resource="http://purl.org/dc/dcmitype/StillImage" />
<dc:title />
</cc:Work>
</rdf:RDF>
</metadata>
<defs
 id="defs3165" />
<path
 style="font-size:medium;font-style:normal;font-variant:normal;font-weight:normal;font-stretch:normal;text-indent:0;text-align:start;text-decoration:none;line-height:normal;letter-spacing:normal;word-spacing:normal;text-transform:none;direction:ltr;block-progression:tb;writing-mode:lr-tb;text-anchor:start;baseline-shift:baseline;color:#000000;fill:#000000;fill-opacity:1;stroke:none;stroke-width:16.03796005;marker:none;visibility:visible;display:inline;overflow:visible;enable-background:accumulate;font-family:Sans;-inkscape-font-specification:Sans"
 d="M 127.07,41.000001 C 68.90881,41.000001 22,89.25881 22,148.55501 L 22,493.48001 C 22,552.77621 68.90881,601 127.07,601 L 476.96501,601 C 535.1262,601 582,552.77621 582,493.48001 L 582,148.55501 C 582,89.25881 535.1262,41.000001 476.96501,41.000001 L 127.07,41.000001 z M 127.07,58.95502 476.96501,58.95502 C 525.23527,58.95502 564.045,98.65529 564.045,148.55501 L 564.045,493.48001 C 564.045,543.37976 525.23527,583.04502 476.96501,583.04502 L 127.07,583.04502 C 78.799734,583.04502 39.99,543.37976 39.99,493.48001 L 39.99,148.55501 C 39.99,98.65529 78.799734,58.95502 127.07,58.95502 z"
 id="rect3801"
 inkscape:connector-curvature="0" />
</svg>
