<?xml version="1.0" encoding="UTF-8" standalone="no"?>
<!-- Created with Inkscape (http://www.inkscape.org/) -->

<svg
 xmlns:dc="http://purl.org/dc/elements/1.1/"
 xmlns:cc="http://creativecommons.org/ns#"
 xmlns:rdf="http://www.w3.org/1999/02/22-rdf-syntax-ns#"
 xmlns:svg="http://www.w3.org/2000/svg"
 xmlns="http://www.w3.org/2000/svg"
 version="1.1"
 width="296"
 height="306"
 id="svg3151">
<metadata
 id="metadata3157">
<rdf:RDF>
<cc:Work
 rdf:about="">
<dc:format>image/svg+xml</dc:format>
<dc:type
 rdf:resource="http://purl.org/dc/dcmitype/StillImage" />
<dc:title></dc:title>
</cc:Work>
</rdf:RDF>
</metadata>
<defs
 id="defs3155" />
<path
 d="M 152.1571,119.96226 74.052427,273.29214 C 95.558629,286.5409 120.88678,294.18372 148,294.18372 175.82966,294.18372 201.77866,286.13166 223.64437,272.23018 z M 3,153 C 3,72.918714 67.918714,8 148,8 228.08129,8 293,72.918714 293,153 293,233.08129 228.08129,298 148,298 67.918714,298 3,233.08129 3,153 z M 289.18373,153 C 289.18373,82.21751 237.09511,23.600966 169.15868,13.391169 L 269.25072,225.36853 C 281.90887,204.20587 289.18373,179.45251 289.18373,153.00001 z M 6.816271,153 C 6.816271,180.57575 14.722067,206.30501 28.390769,228.04486 L 138.34454,12.141254 C 64.874327,17.103393 6.816271,78.271598 6.816271,153 z M 74.052427,273.29214 C 55.583061,261.9142 39.932464,246.40173 28.390779,228.04486 39.932474,246.40173 55.583061,261.9142 74.052427,273.29214 z M 138.34455,12.141254 C 141.53514,11.925762 144.75479,11.816271 148,11.816271 144.75478,11.816271 141.53512,11.925762 138.34455,12.141254 z M 148,11.816271 C 155.19113,11.816271 162.25669,12.353907 169.15868,13.391169 162.25669,12.353907 155.19114,11.816271 148,11.816271 z"
 id="path5" />
</svg>
